<svg xmlns="http://www.w3.org/2000/svg" width="760" height="420" viewBox="0 0 760 420">
<rect width="100%" height="100%" fill="white"/>
<text x="380.0" y="28.0" font-size="18" text-anchor="middle" font-family="Arial, sans-serif">Bootstrap Regression Slope Distribution</text>
<line x1="58" y1="362" x2="702" y2="362" stroke="#222"/>
<line x1="58" y1="58" x2="58" y2="362" stroke="#222"/>
<rect x="58.00" y="358.99" width="22.00" height="3.01" fill="#4977b8"/>
<rect x="81.00" y="358.99" width="22.00" height="3.01" fill="#4977b8"/>
<rect x="104.00" y="358.99" width="22.00" height="3.01" fill="#4977b8"/>
<rect x="127.00" y="355.98" width="22.00" height="6.02" fill="#4977b8"/>
<rect x="150.00" y="349.96" width="22.00" height="12.04" fill="#4977b8"/>
<rect x="173.00" y="331.90" width="22.00" height="30.10" fill="#4977b8"/>
<rect x="196.00" y="307.82" width="22.00" height="54.18" fill="#4977b8"/>
<rect x="219.00" y="319.86" width="22.00" height="42.14" fill="#4977b8"/>
<rect x="242.00" y="232.57" width="22.00" height="129.43" fill="#4977b8"/>
<rect x="265.00" y="235.58" width="22.00" height="126.42" fill="#4977b8"/>
<rect x="288.00" y="169.37" width="22.00" height="192.63" fill="#4977b8"/>
<rect x="311.00" y="154.32" width="22.00" height="207.68" fill="#4977b8"/>
<rect x="334.00" y="73.05" width="22.00" height="288.95" fill="#4977b8"/>
<rect x="357.00" y="58.00" width="22.00" height="304.00" fill="#4977b8"/>
<rect x="380.00" y="97.13" width="22.00" height="264.87" fill="#4977b8"/>
<rect x="403.00" y="97.13" width="22.00" height="264.87" fill="#4977b8"/>
<rect x="426.00" y="133.25" width="22.00" height="228.75" fill="#4977b8"/>
<rect x="449.00" y="130.24" width="22.00" height="231.76" fill="#4977b8"/>
<rect x="472.00" y="136.26" width="22.00" height="225.74" fill="#4977b8"/>
<rect x="495.00" y="235.58" width="22.00" height="126.42" fill="#4977b8"/>
<rect x="518.00" y="250.63" width="22.00" height="111.37" fill="#4977b8"/>
<rect x="541.00" y="304.81" width="22.00" height="57.19" fill="#4977b8"/>
<rect x="564.00" y="325.88" width="22.00" height="36.12" fill="#4977b8"/>
<rect x="587.00" y="337.92" width="22.00" height="24.08" fill="#4977b8"/>
<rect x="610.00" y="349.96" width="22.00" height="12.04" fill="#4977b8"/>
<rect x="633.00" y="346.95" width="22.00" height="15.05" fill="#4977b8"/>
<rect x="656.00" y="358.99" width="22.00" height="3.01" fill="#4977b8"/>
<rect x="679.00" y="355.98" width="22.00" height="6.02" fill="#4977b8"/>
<line x1="387.59" y1="58" x2="387.59" y2="362" stroke="#b84747" stroke-width="2"/>
<text x="393.6" y="76.0" font-size="12" text-anchor="start" font-family="Arial, sans-serif">median 3.59</text>
<text x="58.0" y="402.0" font-size="11" text-anchor="middle" font-family="Arial, sans-serif">-1.01</text>
<text x="702.0" y="402.0" font-size="11" text-anchor="middle" font-family="Arial, sans-serif">7.98</text>
<text x="380.0" y="402.0" font-size="12" text-anchor="middle" font-family="Arial, sans-serif">grade-level slope</text>
</svg>
